<svg width="32" height="35" viewBox="0 0 32 35" fill="none" xmlns="http://www.w3.org/2000/svg">
<path d="M31.7453 13.439L30.5405 5.60939C30.4875 5.26511 30.3131 4.95115 30.0488 4.72429C29.7845 4.49743 29.4477 4.37265 29.0994 4.37251C21.1254 4.37251 17.0384 0.457691 17.0034 0.424144C16.7301 0.152482 16.3605 0 15.9751 0C15.5898 0 15.2201 0.152482 14.9468 0.424144C14.906 0.457691 10.8191 4.37251 2.84501 4.37251C2.49668 4.37265 2.15991 4.49743 1.89559 4.72429C1.63128 4.95115 1.45688 5.26511 1.40393 5.60939L0.199145 13.439C-0.341234 16.9957 0.224405 20.6326 1.81947 23.8572C3.41454 27.0817 5.96199 29.7383 9.11689 31.4671L15.2721 34.8218C15.4864 34.9387 15.7266 35 15.9707 35C16.2149 35 16.4551 34.9387 16.6694 34.8218L22.8246 31.4671C25.98 29.7387 28.5281 27.0823 30.1237 23.8577C31.7193 20.6331 32.2854 16.996 31.7453 13.439ZM21.4302 28.9L15.9722 31.8827L10.5142 28.9058C7.88399 27.4659 5.75979 25.2526 4.42926 22.5654C3.09872 19.8783 2.62612 16.8471 3.07546 13.8824L4.09647 7.25904C8.35507 7.16368 12.489 5.80347 15.9722 3.35151C19.454 5.80317 23.5863 7.16385 27.8436 7.2605L28.8646 13.8824C29.3143 16.8466 28.8424 19.8775 27.5126 22.5646C26.1829 25.2517 24.0596 27.4653 21.4302 28.9058V28.9Z" fill="url(#paint0_linear_2006_24)"/>
<path d="M20.775 12.0928L13.0548 19.813L11.1688 17.9271C11.0343 17.7878 10.8734 17.6767 10.6954 17.6002C10.5174 17.5238 10.3261 17.4836 10.1324 17.4819C9.93872 17.4802 9.74665 17.5171 9.5674 17.5904C9.38814 17.6638 9.22529 17.7721 9.08834 17.909C8.95139 18.046 8.84309 18.2088 8.76975 18.3881C8.69641 18.5673 8.6595 18.7594 8.66119 18.9531C8.66287 19.1467 8.70311 19.3381 8.77955 19.5161C8.85599 19.694 8.96711 19.855 9.10642 19.9895L12.0236 22.9067C12.2971 23.1801 12.668 23.3337 13.0548 23.3337C13.4416 23.3337 13.8125 23.1801 14.086 22.9067L22.8375 14.1552C23.1032 13.8801 23.2502 13.5117 23.2469 13.1293C23.2435 12.7468 23.0901 12.381 22.8197 12.1106C22.5493 11.8401 22.1834 11.6867 21.801 11.6834C21.4186 11.6801 21.0501 11.8271 20.775 12.0928Z" fill="url(#paint1_linear_2006_24)"/>
<defs>
<linearGradient id="paint0_linear_2006_24" x1="0" y1="17.5" x2="31.9442" y2="17.5" gradientUnits="userSpaceOnUse">
<stop stop-color="#F73531"/>
<stop offset="0.985046" stop-color="#FF6B00"/>
</linearGradient>
<linearGradient id="paint1_linear_2006_24" x1="8.66113" y1="17.5085" x2="23.2469" y2="17.5085" gradientUnits="userSpaceOnUse">
<stop stop-color="#F73531"/>
<stop offset="0.985046" stop-color="#FF6B00"/>
</linearGradient>
</defs>
</svg>
