<svg width="35" height="35" viewBox="0 0 35 35" fill="none" xmlns="http://www.w3.org/2000/svg">
<path d="M31.7188 23.2731V20.7812C31.7188 19.6209 31.2578 18.5081 30.4373 17.6877C29.6169 16.8672 28.5041 16.4063 27.3438 16.4062C26.1834 16.4063 25.0706 16.8672 24.2502 17.6877C23.4297 18.5081 22.9688 19.6209 22.9688 20.7812V23.2731C22.6374 23.4636 22.3619 23.7379 22.1699 24.0684C21.978 24.3989 21.8763 24.774 21.875 25.1562V30.625C21.8757 31.2049 22.1064 31.7609 22.5165 32.171C22.9266 32.5811 23.4826 32.8118 24.0625 32.8125H30.625C31.2049 32.8118 31.7609 32.5811 32.171 32.171C32.5811 31.7609 32.8118 31.2049 32.8125 30.625V25.1562C32.8112 24.774 32.7095 24.3989 32.5176 24.0684C32.3256 23.7379 32.0501 23.4636 31.7188 23.2731ZM27.3438 18.5938C27.9237 18.5945 28.4797 18.8252 28.8897 19.2353C29.2998 19.6453 29.5305 20.2013 29.5312 20.7812V22.9688H25.1562V20.7812C25.157 20.2013 25.3877 19.6453 25.7978 19.2353C26.2078 18.8252 26.7638 18.5945 27.3438 18.5938ZM24.0625 30.625V25.1562H30.625V30.625H24.0625Z" fill="black"/>
<path d="M4.375 2.1875H2.1875V6.5625H4.375V2.1875Z" fill="black"/>
<path d="M17.5 2.1875H15.3125V6.5625H17.5V2.1875Z" fill="black"/>
<path d="M21.875 2.1875H19.6875V6.5625H21.875V2.1875Z" fill="black"/>
<path d="M4.375 8.75H2.1875V17.5H4.375V8.75Z" fill="black"/>
<path d="M4.375 19.6875H2.1875V28.4375H4.375V19.6875Z" fill="black"/>
<path d="M17.5 19.6875H15.3125V28.4375H17.5V19.6875Z" fill="black"/>
<path d="M8.75 8.75H6.5625V17.5H8.75V8.75Z" fill="black"/>
<path d="M21.875 8.75H19.6875V15.3125H21.875V8.75Z" fill="black"/>
<path d="M10.9375 28.4375H8.75C8.17004 28.4368 7.61403 28.2062 7.20394 27.7961C6.79385 27.386 6.56317 26.83 6.5625 26.25V21.875C6.56317 21.295 6.79385 20.739 7.20394 20.3289C7.61403 19.9188 8.17004 19.6882 8.75 19.6875H10.9375C11.5175 19.6882 12.0735 19.9188 12.4836 20.3289C12.8937 20.739 13.1243 21.295 13.125 21.875V26.25C13.1243 26.83 12.8937 27.386 12.4836 27.7961C12.0735 28.2062 11.5175 28.4368 10.9375 28.4375ZM8.75 21.875V26.25H10.9375V21.875H8.75Z" fill="black"/>
<path d="M15.3125 17.5H13.125C12.545 17.4993 11.989 17.2687 11.5789 16.8586C11.1688 16.4485 10.9382 15.8925 10.9375 15.3125V10.9375C10.9382 10.3575 11.1688 9.80153 11.5789 9.39144C11.989 8.98135 12.545 8.75067 13.125 8.75H15.3125C15.8925 8.75067 16.4485 8.98135 16.8586 9.39144C17.2687 9.80153 17.4993 10.3575 17.5 10.9375V15.3125C17.4993 15.8925 17.2687 16.4485 16.8586 16.8586C16.4485 17.2687 15.8925 17.4993 15.3125 17.5ZM13.125 10.9375V15.3125H15.3125V10.9375H13.125Z" fill="black"/>
<path d="M10.9375 6.5625H8.75C8.17004 6.56183 7.61403 6.33115 7.20394 5.92106C6.79385 5.51097 6.56317 4.95496 6.5625 4.375V2.1875H8.75V4.375H10.9375V2.1875H13.125V4.375C13.1243 4.95496 12.8937 5.51097 12.4836 5.92106C12.0735 6.33115 11.5175 6.56183 10.9375 6.5625Z" fill="black"/>
</svg>
