<svg width="35" height="35" viewBox="0 0 35 35" fill="none" xmlns="http://www.w3.org/2000/svg">
<path fill-rule="evenodd" clip-rule="evenodd" d="M3.37477 5.99251C4.03516 5.33916 4.92661 4.97275 5.85552 4.97275C6.78444 4.97275 7.67591 5.33916 8.33631 5.99253L8.35805 6.01405L12.2038 10.0102C12.8521 10.6657 13.2159 11.5506 13.2159 12.4729C13.2159 13.3982 12.8497 14.2859 12.1974 14.942C12.008 15.134 11.9018 15.3928 11.9018 15.6625C11.9018 15.9317 12.0077 16.1901 12.1965 16.382C12.1971 16.3826 12.1977 16.3832 12.1983 16.3839L18.568 22.7535C18.5686 22.7542 18.5693 22.7548 18.5699 22.7554C18.7617 22.9442 19.0202 23.0501 19.2894 23.0501C19.5595 23.0501 19.8187 22.9435 20.0107 22.7536L20.8902 23.6425L20.0079 22.7563C20.6643 22.1028 21.5528 21.736 22.479 21.736C23.4051 21.736 24.2935 22.1028 24.9498 22.7561C24.9497 22.756 24.9499 22.7562 24.9498 22.7561L28.9517 26.7332L28.9589 26.7404C29.6128 27.4009 29.979 28.2927 29.979 29.2215C29.979 30.1502 29.6128 31.0418 28.9592 31.7023L28.9545 31.707L28.0039 32.6576C26.7108 33.9495 25.0138 34.7605 23.196 34.9547C21.3783 35.1489 19.5489 34.7151 18.0118 33.7254L17.99 33.7114C11.3802 29.259 5.69296 23.5715 1.24075 16.9617L1.21761 16.926C0.246469 15.3728 -0.16262 13.5336 0.0586098 11.7152C0.27943 9.90014 1.11492 8.2155 2.42595 6.9413L3.37477 5.99251ZM5.13609 7.76902L4.17459 8.73052C3.27038 9.60711 2.69404 10.7672 2.54194 12.0173C2.39067 13.2608 2.66809 14.5184 3.32803 15.5825C7.59583 21.9135 13.0449 27.3617 19.3766 31.6288C20.4311 32.3045 21.6847 32.6003 22.9303 32.4672C24.1798 32.3337 25.3461 31.7765 26.2349 30.8887C26.2348 30.8888 26.2351 30.8886 26.2349 30.8887L27.1809 29.9428C27.1815 29.9422 27.1821 29.9416 27.1827 29.941C27.3716 29.7491 27.4774 29.4907 27.4774 29.2215C27.4774 28.9524 27.3719 28.6947 27.184 28.5034L23.1858 24.53C22.9983 24.3433 22.7436 24.2376 22.479 24.2376C22.2143 24.2376 21.9605 24.3424 21.7729 24.5291L21.7701 24.5319C21.1098 25.1853 20.2183 25.5517 19.2894 25.5517C18.3604 25.5517 17.469 25.1853 16.8086 24.5319L16.8038 24.5272L10.4246 18.148L10.4199 18.1432C9.76661 17.4829 9.40016 16.5914 9.40016 15.6625C9.40016 14.7336 9.76661 13.8421 10.4199 13.1818L10.4227 13.1789C10.6094 12.9914 10.7143 12.7375 10.7143 12.4729C10.7143 12.2083 10.6094 11.9544 10.4227 11.7669L10.4078 11.7519L6.56807 7.7623C6.37702 7.57775 6.1216 7.4744 5.85552 7.4744C5.58629 7.4744 5.32791 7.58025 5.13609 7.76902Z" fill="#4F4F4F"/>
<path fill-rule="evenodd" clip-rule="evenodd" d="M30.8638 3.73273L28.2921 6.67184H30.8638V3.73273ZM33.3654 9.17349H33.5974C34.2882 9.17349 34.8482 8.61348 34.8482 7.92267C34.8482 7.23185 34.2882 6.67184 33.5974 6.67184H33.3654V1.76075C33.3654 0.788695 32.5777 0 31.6048 0C31.097 0 30.614 0.219166 30.2797 0.601291C30.2797 0.601316 30.2797 0.601266 30.2797 0.601291L25.3767 6.20478C25.0906 6.53158 24.9334 6.95105 24.9334 7.38381C24.9334 8.37207 25.7344 9.17349 26.7231 9.17349H30.8638V10.1466C30.8638 10.8374 31.4238 11.3974 32.1146 11.3974C32.8054 11.3974 33.3654 10.8374 33.3654 10.1466V9.17349ZM32.1619 2.24913C32.1618 2.24932 32.1621 2.24894 32.1619 2.24913V2.24913Z" fill="#4F4F4F"/>
<path fill-rule="evenodd" clip-rule="evenodd" d="M15.0711 2.31662C15.5475 0.968709 16.833 0 18.3478 0H19.8881C21.7754 0 23.3052 1.52987 23.3052 3.41708C23.3052 4.77467 22.5015 6.00352 21.2578 6.54766L17.9578 7.9914C17.9578 7.99141 17.9578 7.9914 17.9578 7.9914C17.6036 8.14637 17.3747 8.49631 17.3747 8.88295V8.89578H22.0544C22.7452 8.89578 23.3052 9.45579 23.3052 10.1466C23.3052 10.8374 22.7452 11.3974 22.0544 11.3974H16.1239C15.4331 11.3974 14.8731 10.8374 14.8731 10.1466V8.88295C14.8731 7.50243 15.6903 6.25286 16.9551 5.69951L20.2551 4.25575C20.5883 4.10999 20.8036 3.78077 20.8036 3.41708C20.8036 2.91151 20.3938 2.50165 19.8881 2.50165H18.3478C17.9261 2.50165 17.5639 2.77065 17.4297 3.15028C17.1995 3.80161 16.4849 4.14299 15.8336 3.91278C15.1823 3.68257 14.8409 2.96794 15.0711 2.31662Z" fill="#4F4F4F"/>
</svg>
